<svg xmlns="http://www.w3.org/2000/svg" xmlns:xlink="http://www.w3.org/1999/xlink" width="6094" height="1501" viewBox="0 0 6094 1501">
  <defs>
    <style>
      .cls-1 {
        fill: #2032b8;
        fill-rule: evenodd;
        filter: url(#filter);
      }
    </style>
    <filter id="filter" x="68" y="65.813" width="5952.62" height="1383.188" filterUnits="userSpaceOnUse">
      <feOffset result="offset" dx="-58.024" dy="33.5" in="SourceAlpha"/>
      <feGaussianBlur result="blur"/>
      <feFlood result="flood" flood-color="#6c7aff"/>
      <feComposite result="composite" operator="in" in2="blur"/>
      <feBlend result="blend" in="SourceGraphic"/>
    </filter>
  </defs>
  <path id="Fivee" class="cls-1" d="M423.205,1388.05q45.882-4.125,58.048-40.35l76.216-230.56-21.747-13.28c-13.944-8.12-28.095-18.56-44.952-26.42-12.382-7.09-7.807-21.56,8.215-22.99l518.535-46.54c27.68-2.48,49.83-17.354,58.05-40.346l45.13-135.24-483.583,43.4,18.613-54.38-78.977-45.623c-10.926-7.219-6.456-22.847,9.567-24.285l709.35-63.656c27.67-2.484,52.74-17.618,60.96-40.611l56.87-167.92L297.776,579.37c-16.022,1.438-21.949,17.2-8.11,24.154l93.125,39.668C332.363,801.163,162.249,1294.33,126.066,1414.71Zm917.655-82.35,295.68-26.53q45.885-4.125,58.05-40.35l268.06-808.854L1508.2,470.747c-16.02,1.438-21.85,18.36-5.1,25.056,34.76,10.937,63.79,23.559,94.48,38.375C1538.42,725.729,1386.71,1162.2,1340.86,1305.7Zm698.13-859.158c108.31,45.332,68.46,26.653,97.6,40.437,25.5,71.506,188.85,599.171,229.66,726.7l307.33-27.58c20.4-1.83,35.9-9.08,47.96-21.87,105.79-113.74,679.98-750.939,793.77-873.6l-337.92,30.325c-18.93,1.7-34.44,8.947-47.96,21.874C2911.72,583.749,2825.39,685.2,2616.2,923.015c-9.36,10.211-30.27,6.231-29.96-6.681l1.84-159.467L2468.04,384.612l-423.86,38.036C2028.27,425.248,2025.15,439.584,2038.99,446.542ZM3629.1,1100.36l805.48-72.29q45.87-4.11,58.04-40.347L4549.5,819.8,3843.07,883.2l23.18-68.847-57.43-34.671c-10.93-7.219-6.35-21.686,9.67-23.123l519.99-46.664c27.67-2.484,49.83-17.357,58.05-40.349l45.12-135.24-498.14,44.7,17.57-49.6-83.76-49.879c-12.38-7.088-7.91-22.717,8.11-24.155l761.78-68.361c27.68-2.484,49.84-17.357,58.05-40.35l55.42-167.789L3604.17,282.657c-16.02,1.437-20.49,17.066-6.65,24.023,38.08,15.324,83.86,34.643,88.75,40.06L3484.76,964.548C3459.18,1039.47,3534.42,1108.85,3629.1,1100.36ZM4889.03,987.29l805.48-72.283q45.87-4.117,58.04-40.349l56.88-167.92L5103,770.133l23.19-68.847-57.44-34.671c-10.93-7.219-6.35-21.686,9.67-23.124l519.99-46.663c27.68-2.484,49.84-17.357,58.05-40.35l45.13-135.239-498.15,44.7,17.58-49.6-83.77-49.878c-12.38-7.089-7.91-22.717,8.11-24.155l761.78-68.362c27.68-2.483,49.84-17.356,58.05-40.349l55.42-167.789L4864.1,169.591c-16.02,1.438-20.49,17.067-6.65,24.024,38.08,15.324,83.86,34.642,88.75,40.06L4744.69,851.483C4719.11,926.4,4794.35,995.786,4889.03,987.29Z"/>
</svg>
